<svg xmlns="http://www.w3.org/2000/svg" viewBox="0 0 180 160" role="img" aria-label="Confetti asset">
  <rect width="180" height="160" rx="28" fill="#fff8f0"/>
  <path d="M33 122c40-48 83-48 119 0" fill="none" stroke="#46c7d9" stroke-width="9" stroke-linecap="round" stroke-dasharray="16 12"/>
  <path d="M44 36l9 20 22 3-16 15 4 22-19-11-20 11 5-22-17-15 23-3z" fill="#ffd35a"/>
  <path d="M129 43c17-20 43 5 20 28l-20 20-20-20c-23-23 3-48 20-28z" fill="#ef5b63"/>
  <rect x="80" y="24" width="18" height="18" rx="3" fill="#7f59e8" transform="rotate(18 89 33)"/>
  <rect x="126" y="108" width="20" height="13" rx="3" fill="#2fb36d" transform="rotate(-24 136 114.5)"/>
</svg>
