<svg xmlns="http://www.w3.org/2000/svg" viewBox="0 0 220 150" role="img" aria-label="Cake layer asset">
  <rect width="220" height="150" rx="18" fill="#fff8f0"/>
  <rect x="30" y="64" width="160" height="58" rx="16" fill="#d8912e"/>
  <ellipse cx="110" cy="63" rx="80" ry="30" fill="#fff8e8"/>
  <path d="M31 64c17 17 28-7 44 4 18 13 30-8 51 3 18 10 31-8 50 2 13 7 21 12 14-8v30c-16 14-30 2-45-5-20-8-28 13-48 1-18-10-28 9-46-3-12-9-20 6-20 6z" fill="#ff9fbd"/>
  <g fill="#ef5b63" stroke="#9c1735" stroke-width="2">
    <circle cx="64" cy="59" r="8"/>
    <circle cx="108" cy="50" r="8"/>
    <circle cx="154" cy="59" r="8"/>
  </g>
</svg>
