<svg xmlns="http://www.w3.org/2000/svg" viewBox="0 0 256 180" role="img" aria-labelledby="title desc">
  <title id="title">Airport Chef</title>
  <desc id="desc">A cartoon chef serving airport food trays.</desc>
  <rect width="256" height="180" rx="22" fill="#dff7ff"/>
  <rect y="100" width="256" height="80" fill="#f4d28b"/>
  <path d="M0 112h256" stroke="#f1b862" stroke-width="8"/>
  <rect x="18" y="36" width="220" height="44" rx="14" fill="#fff" opacity=".76"/>
  <circle cx="46" cy="58" r="18" fill="#43acd8"/>
  <path d="M35 60h24l15-10-12 16 12 10-15-8H35z" fill="#26354f"/>
  <rect x="44" y="90" width="84" height="56" rx="12" fill="#3f9f6a"/>
  <rect x="134" y="86" width="76" height="60" rx="12" fill="#456c86"/>
  <ellipse cx="88" cy="88" rx="32" ry="12" fill="#fff4de"/>
  <circle cx="86" cy="66" r="20" fill="#ffe3b7"/>
  <rect x="65" y="78" width="42" height="46" rx="16" fill="#f47b43"/>
  <rect x="61" y="47" width="50" height="20" rx="10" fill="#fff"/>
  <circle cx="75" cy="51" r="11" fill="#fff"/>
  <circle cx="97" cy="51" r="11" fill="#fff"/>
  <circle cx="80" cy="65" r="3" fill="#26354f"/>
  <circle cx="93" cy="65" r="3" fill="#26354f"/>
  <path d="M78 75q8 8 18 0" fill="none" stroke="#26354f" stroke-width="4" stroke-linecap="round"/>
  <rect x="128" y="112" width="84" height="28" rx="12" fill="#d8ecf4" stroke="#26354f" stroke-width="5"/>
  <ellipse cx="154" cy="110" rx="22" ry="12" fill="#f1b862"/>
  <rect x="136" y="111" width="38" height="8" rx="4" fill="#7a4128"/>
  <rect x="136" y="120" width="38" height="7" rx="3" fill="#53b85d"/>
  <rect x="180" y="96" width="24" height="38" rx="5" fill="#43acd8"/>
  <rect x="183" y="88" width="5" height="12" fill="#fff"/>
  <circle cx="212" cy="104" r="14" fill="#ef6da8"/>
  <circle cx="207" cy="99" r="6" fill="#fff4de"/>
  <path d="M214 47h10m-5-5v10M225 65h7m-4-4v8M29 118h11m-5-5v10" stroke="#ffd35a" stroke-width="5" stroke-linecap="round"/>
</svg>
