<svg xmlns="http://www.w3.org/2000/svg" viewBox="0 0 360 220" role="img" aria-label="Basket and Ball illustration">
  <rect width="360" height="220" rx="18" fill="#ffe1a0"/>
  <rect y="154" width="360" height="66" fill="#f5b56d"/>
  <path d="M0 174h360M90 154v66M180 154v66M270 154v66" stroke="#fffdf8" stroke-width="4" opacity="0.58"/>
  <g transform="translate(88 150)">
    <rect x="-24" y="-46" width="48" height="64" rx="12" fill="#142033"/>
    <circle cy="-68" r="23" fill="#ff8a3d"/>
    <rect x="-38" y="-34" width="76" height="12" rx="6" fill="#46c7d9"/>
    <rect x="-22" y="14" width="14" height="44" fill="#2fb36d"/>
    <rect x="8" y="14" width="14" height="44" fill="#2fb36d"/>
  </g>
  <path d="M116 112c46-76 116-80 154-32" fill="none" stroke="#7f59e8" stroke-width="7" stroke-dasharray="13 13"/>
  <g transform="translate(288 82)">
    <rect x="42" y="-42" width="12" height="126" fill="#142033"/>
    <rect x="0" y="-44" width="54" height="42" fill="#fffdf8"/>
    <ellipse cx="0" cy="0" rx="42" ry="12" fill="none" stroke="#ef5b63" stroke-width="8"/>
    <path d="M-34 8-18 58M-18 8-8 64M0 10v58M18 8 8 64M34 8 18 58" stroke="#142033" stroke-width="3" opacity="0.38"/>
  </g>
  <g transform="translate(206 78)">
    <circle r="20" fill="#d85b28"/>
    <path d="M-20 0h40M0-20v40M-14-14c8 8 20 8 28 0M-14 14c8-8 20-8 28 0" stroke="#132035" stroke-width="3" fill="none"/>
  </g>
</svg>
