<svg xmlns="http://www.w3.org/2000/svg" viewBox="0 0 320 180" role="img" aria-label="Fish Grab Frenzy game illustration">
  <rect width="320" height="180" rx="18" fill="#a8e9f5"/>
  <path d="M0 132h320v48H0z" fill="#f8e2a9"/>
  <ellipse cx="160" cy="94" rx="88" ry="52" fill="#f2c27b" stroke="#8d5b34" stroke-width="6"/>
  <path d="M94 95c38-18 94-18 132 0" fill="none" stroke="#c4864d" stroke-width="4" opacity=".45"/>
  <g transform="translate(151 83)">
    <ellipse cx="0" cy="0" rx="30" ry="16" fill="#46c7d9" stroke="#132035" stroke-width="4"/>
    <path d="M26 0l28-18-5 18 5 18z" fill="#ff8a3d" stroke="#132035" stroke-width="4"/>
    <circle cx="-14" cy="-4" r="5" fill="#fff"/>
    <circle cx="-12" cy="-4" r="2.2" fill="#132035"/>
  </g>
  <g fill="#132035" stroke="#132035" stroke-width="3">
    <path d="M154 38l-10-22 21 11 21-11-10 22z" fill="#ffd35a"/>
    <path d="M44 95l-12-24 25 10 25-10-12 24z" fill="#f8b86a"/>
    <path d="M252 95l-12-24 25 10 25-10-12 24z" fill="#44566b"/>
    <path d="M154 158l-10-24 21 11 21-11-10 24z" fill="#9bdc8c"/>
  </g>
  <g fill="#fff" opacity=".85">
    <ellipse cx="54" cy="34" rx="26" ry="9"/>
    <ellipse cx="271" cy="39" rx="32" ry="11"/>
    <ellipse cx="256" cy="141" rx="36" ry="10"/>
  </g>
  <text x="160" y="170" text-anchor="middle" font-family="Arial, sans-serif" font-size="17" font-weight="900" fill="#132035">FISH GRAB FRENZY</text>
</svg>
