<svg xmlns="http://www.w3.org/2000/svg" viewBox="0 0 360 220" role="img" aria-label="Memory Match illustration">
  <rect width="360" height="220" rx="18" fill="#efe8ff"/>

  <g transform="translate(48 34)">
    <rect width="70" height="88" rx="12" fill="#7f59e8"/>
    <path d="M20 44h30M35 28v32" stroke="#fffdf8" stroke-width="8" stroke-linecap="round"/>
  </g>

  <g transform="translate(142 34)">
    <rect width="70" height="88" rx="12" fill="#fff8dc" stroke="#ff8a3d" stroke-width="5"/>
    <g transform="translate(13 22) scale(.44)">
      <g fill="none" stroke="#ffb423" stroke-width="8" stroke-linecap="round">
        <path d="M50 8v14M50 78v14M8 50h14M78 50h14M20 20l10 10M70 70l10 10M80 20 70 30M30 70 20 80"/>
      </g>
      <circle cx="50" cy="50" r="21" fill="#ffd35a" stroke="#ff8a3d" stroke-width="6"/>
    </g>
  </g>

  <g transform="translate(236 34)">
    <rect width="70" height="88" rx="12" fill="#7f59e8"/>
    <path d="M18 28h34v34H18z" fill="none" stroke="#fffdf8" stroke-width="7"/>
  </g>

  <g transform="translate(48 132)">
    <rect width="70" height="62" rx="12" fill="#daf7e7" stroke="#2fb36d" stroke-width="5"/>
    <g transform="translate(11 5) scale(.48)">
      <rect x="22" y="28" width="56" height="44" rx="12" fill="#46c7d9" stroke="#132035" stroke-width="5"/>
      <path d="M50 28V16" stroke="#132035" stroke-width="5" stroke-linecap="round"/>
      <circle cx="50" cy="13" r="6" fill="#ff8a3d"/>
      <circle cx="39" cy="50" r="5" fill="#132035"/>
      <circle cx="61" cy="50" r="5" fill="#132035"/>
      <path d="M38 63h24" stroke="#132035" stroke-width="5" stroke-linecap="round"/>
    </g>
  </g>

  <g transform="translate(142 132)">
    <rect width="70" height="62" rx="12" fill="#7f59e8"/>
    <circle cx="35" cy="31" r="17" fill="none" stroke="#fffdf8" stroke-width="7"/>
  </g>

  <g transform="translate(236 132)">
    <rect width="70" height="62" rx="12" fill="#fff8dc" stroke="#ff8a3d" stroke-width="5"/>
    <g transform="translate(14 9) scale(.42)">
      <path d="m50 10 11 26 28 3-21 18 6 28-24-15-24 15 6-28-21-18 28-3z" fill="#ffd35a" stroke="#ff8a3d" stroke-width="6" stroke-linejoin="round"/>
    </g>
  </g>
</svg>
