<svg xmlns="http://www.w3.org/2000/svg" viewBox="0 0 320 220" role="img" aria-labelledby="title">
  <title id="title">Red-Eye Run watchkeeper robot on an airport runway</title>
  <defs>
    <linearGradient id="sky" x1="0" x2="0" y1="0" y2="1">
      <stop stop-color="#d9f6ff"/>
      <stop offset="1" stop-color="#fff3ce"/>
    </linearGradient>
    <linearGradient id="runway" x1="0" x2="1">
      <stop stop-color="#e9f7fb"/>
      <stop offset="1" stop-color="#dff4ee"/>
    </linearGradient>
  </defs>
  <rect width="320" height="220" rx="28" fill="url(#sky)"/>
  <ellipse cx="60" cy="58" rx="42" ry="17" fill="#fff" opacity=".7"/>
  <ellipse cx="252" cy="72" rx="50" ry="19" fill="#fff" opacity=".72"/>
  <path d="M36 206 120 56h80l84 150z" fill="url(#runway)" stroke="#63c4d7" stroke-width="6" stroke-linejoin="round"/>
  <path d="M160 82v112" stroke="#fff" stroke-width="8" stroke-dasharray="18 13"/>
  <path d="M108 62h104" stroke="#2fb8a2" stroke-width="8" stroke-linecap="round"/>
  <path d="M106 66c20-32 88-32 108 0" fill="none" stroke="#2fb8a2" stroke-width="8" stroke-linecap="round"/>
  <rect x="118" y="24" width="84" height="36" rx="12" fill="#264b60"/>
  <rect x="132" y="50" width="56" height="52" rx="16" fill="#f7fbff" stroke="#46c7d9" stroke-width="5"/>
  <circle cx="160" cy="31" r="31" fill="#2fb8a2"/>
  <circle cx="160" cy="31" r="22" fill="#fff"/>
  <rect x="134" y="0" width="52" height="13" rx="6" fill="#ffd35a"/>
  <circle cx="151" cy="30" r="5" fill="#ef3f55"/>
  <circle cx="169" cy="30" r="5" fill="#ef3f55"/>
  <path d="M132 72 106 84M188 72l26 12" stroke="#ff8a3d" stroke-width="6" stroke-linecap="round"/>
  <circle cx="92" cy="170" r="16" fill="#38aee2" stroke="#132035" stroke-width="4"/>
  <circle cx="138" cy="144" r="15" fill="#ff8a3d" stroke="#ffd35a" stroke-width="4"/>
  <circle cx="197" cy="154" r="15" fill="#7f59e8" stroke="#fff" stroke-width="4"/>
  <circle cx="230" cy="176" r="16" fill="#2fb36d" stroke="#ffd35a" stroke-width="4"/>
  <path d="M75 119h170" stroke="#ef3f55" stroke-width="7" stroke-linecap="round"/>
  <text x="160" y="208" text-anchor="middle" font-family="Arial, sans-serif" font-size="24" font-weight="900" fill="#132035">RED-EYE RUN</text>
</svg>
