<svg xmlns="http://www.w3.org/2000/svg" viewBox="0 0 320 220" role="img" aria-label="Runway Rumble floating obstacle course illustration">
  <defs>
    <linearGradient id="sky" x1="0" x2="1" y1="0" y2="1">
      <stop offset="0" stop-color="#dff8ff"/>
      <stop offset="0.55" stop-color="#fff4d7"/>
      <stop offset="1" stop-color="#dff8ed"/>
    </linearGradient>
    <linearGradient id="runway" x1="0" x2="1">
      <stop offset="0" stop-color="#67c6d4"/>
      <stop offset="1" stop-color="#2fb8a2"/>
    </linearGradient>
  </defs>
  <rect width="320" height="220" rx="18" fill="url(#sky)"/>
  <g fill="#fff" opacity=".82">
    <ellipse cx="58" cy="45" rx="36" ry="13"/>
    <ellipse cx="96" cy="53" rx="52" ry="17"/>
    <ellipse cx="236" cy="50" rx="46" ry="15"/>
    <ellipse cx="250" cy="176" rx="50" ry="16"/>
  </g>
  <path d="M37 181 129 76c8-9 22-13 34-9l119 42c8 3 10 14 3 20l-94 78c-6 5-15 7-23 4L43 192c-7-1-10-7-6-11Z" fill="#dff8ff" stroke="#2f8ea7" stroke-width="6"/>
  <path d="M74 171 154 85l102 38-81 67Z" fill="url(#runway)" opacity=".78"/>
  <g stroke="#fff" stroke-width="5" stroke-linecap="round" opacity=".9">
    <path d="M117 156 187 98"/>
    <path d="M153 166 222 112"/>
  </g>
  <g transform="translate(174 129) rotate(-16)">
    <rect x="-63" y="-8" width="126" height="16" rx="8" fill="#ef5b63"/>
    <circle cx="0" cy="0" r="13" fill="#132035"/>
  </g>
  <g transform="translate(95 150)">
    <ellipse cx="0" cy="25" rx="24" ry="8" fill="#132035" opacity=".18"/>
    <ellipse cx="0" cy="0" rx="20" ry="27" fill="#39bde5" stroke="#fff" stroke-width="6"/>
    <circle cx="-7" cy="-8" r="3" fill="#132035"/>
    <circle cx="7" cy="-8" r="3" fill="#132035"/>
    <path d="M-8 3q8 9 16 0" fill="none" stroke="#132035" stroke-width="3" stroke-linecap="round"/>
    <path d="M-18 4h36l-9 10H-8Z" fill="#ef5b63"/>
    <path d="M0-42 12-20h-24Z" fill="#132035" stroke="#fff" stroke-width="3"/>
  </g>
  <g transform="translate(228 145)">
    <ellipse cx="0" cy="21" rx="19" ry="7" fill="#132035" opacity=".16"/>
    <ellipse cx="0" cy="0" rx="17" ry="23" fill="#ffd35a" stroke="#132035" stroke-opacity=".18" stroke-width="4"/>
    <circle cx="-6" cy="-7" r="2.5" fill="#132035"/>
    <circle cx="6" cy="-7" r="2.5" fill="#132035"/>
    <path d="M-7 2q7 6 14 0" fill="none" stroke="#132035" stroke-width="2.5" stroke-linecap="round"/>
  </g>
  <path d="M248 62 263 99l37 2-29 22 10 36-31-20-32 20 10-36-29-22 37-2Z" fill="#ffd35a" stroke="#b86f1e" stroke-width="5"/>
</svg>
