<svg xmlns="http://www.w3.org/2000/svg" viewBox="0 0 320 220" role="img" aria-label="Sky Ludo airport board game illustration">
  <defs>
    <linearGradient id="bg" x1="0" y1="0" x2="1" y2="1">
      <stop offset="0" stop-color="#a8e8ff"/>
      <stop offset="1" stop-color="#e8fbf3"/>
    </linearGradient>
  </defs>
  <rect width="320" height="220" rx="28" fill="url(#bg)"/>
  <rect x="76" y="28" width="168" height="168" rx="18" fill="#fff" stroke="#132035" stroke-opacity=".18" stroke-width="3"/>
  <rect x="86" y="38" width="48" height="48" rx="12" fill="#dff8ff" stroke="#38aee2" stroke-width="5"/>
  <rect x="186" y="38" width="48" height="48" rx="12" fill="#fff4c8" stroke="#ffd35a" stroke-width="5"/>
  <rect x="86" y="138" width="48" height="48" rx="12" fill="#e8fbf3" stroke="#2fb36d" stroke-width="5"/>
  <rect x="186" y="138" width="48" height="48" rx="12" fill="#fce7ee" stroke="#ef5b63" stroke-width="5"/>
  <g fill="#f7fbff" stroke="#132035" stroke-opacity=".24" stroke-width="1.5">
    <rect x="142" y="38" width="12" height="108" rx="3"/>
    <rect x="166" y="74" width="12" height="108" rx="3"/>
    <rect x="86" y="102" width="108" height="12" rx="3"/>
    <rect x="126" y="126" width="108" height="12" rx="3"/>
  </g>
  <path d="M160 91 184 110 160 129 136 110Z" fill="#fff" stroke="#132035" stroke-opacity=".34" stroke-width="3"/>
  <circle cx="110" cy="62" r="10" fill="#38aee2"/>
  <text x="110" y="67" text-anchor="middle" font-family="Arial, sans-serif" font-weight="900" font-size="11" fill="#fff">W</text>
  <circle cx="210" cy="62" r="10" fill="#ffd35a"/>
  <text x="210" y="67" text-anchor="middle" font-family="Arial, sans-serif" font-weight="900" font-size="12" fill="#132035">*</text>
  <circle cx="110" cy="162" r="10" fill="#2fb36d"/>
  <text x="110" y="167" text-anchor="middle" font-family="Arial, sans-serif" font-weight="900" font-size="11" fill="#fff">C</text>
  <circle cx="210" cy="162" r="10" fill="#ef5b63"/>
  <text x="210" y="167" text-anchor="middle" font-family="Arial, sans-serif" font-weight="900" font-size="11" fill="#fff">N</text>
  <rect x="246" y="38" width="44" height="44" rx="10" fill="#fff" stroke="#132035" stroke-width="4"/>
  <circle cx="260" cy="52" r="4" fill="#132035"/>
  <circle cx="276" cy="52" r="4" fill="#132035"/>
  <circle cx="260" cy="68" r="4" fill="#132035"/>
  <circle cx="276" cy="68" r="4" fill="#132035"/>
  <text x="160" y="207" text-anchor="middle" font-family="Arial, sans-serif" font-size="18" font-weight="900" fill="#132035">SKY LUDO</text>
</svg>
