<svg xmlns="http://www.w3.org/2000/svg" viewBox="0 0 360 220" role="img" aria-label="Sumo game illustration">
  <defs>
    <linearGradient id="sky" x1="0" x2="1" y1="0" y2="1">
      <stop offset="0" stop-color="#dff8ff"/>
      <stop offset="1" stop-color="#fff1cf"/>
    </linearGradient>
  </defs>
  <rect width="360" height="220" rx="18" fill="url(#sky)"/>
  <ellipse cx="96" cy="52" rx="54" ry="16" fill="#fffdf8" opacity=".74"/>
  <ellipse cx="280" cy="66" rx="44" ry="14" fill="#fffdf8" opacity=".74"/>
  <g transform="translate(180 122)">
    <ellipse rx="124" ry="74" fill="#fdcf76" stroke="#132035" stroke-width="8"/>
    <ellipse rx="88" ry="50" fill="#fff7d4" stroke="#de5b8c" stroke-width="7"/>
    <path d="M-92-2H92M0-52V52" stroke="#132035" stroke-width="3" opacity=".16"/>
  </g>
  <g transform="translate(124 122)">
    <ellipse cx="0" cy="46" rx="38" ry="12" fill="#132035" opacity=".18"/>
    <circle cy="-24" r="30" fill="#ffd7bd" stroke="#132035" stroke-width="5"/>
    <rect x="-34" y="-10" width="68" height="58" rx="24" fill="#46c7d9" stroke="#132035" stroke-width="5"/>
    <path d="M-18 6h36" stroke="#fffdf8" stroke-width="8" stroke-linecap="round"/>
    <circle cx="-10" cy="-30" r="4" fill="#132035"/>
    <circle cx="11" cy="-30" r="4" fill="#132035"/>
  </g>
  <g transform="translate(238 122)">
    <ellipse cx="0" cy="46" rx="38" ry="12" fill="#132035" opacity=".18"/>
    <circle cy="-24" r="30" fill="#ffd7bd" stroke="#132035" stroke-width="5"/>
    <rect x="-34" y="-10" width="68" height="58" rx="24" fill="#de5b8c" stroke="#132035" stroke-width="5"/>
    <path d="M-18 6h36" stroke="#fffdf8" stroke-width="8" stroke-linecap="round"/>
    <circle cx="-10" cy="-30" r="4" fill="#132035"/>
    <circle cx="11" cy="-30" r="4" fill="#132035"/>
  </g>
  <path d="M84 95c22-22 48-22 70 0M206 95c22-22 48-22 70 0" fill="none" stroke="#132035" stroke-width="5" stroke-linecap="round" opacity=".35"/>
</svg>
